<svg xmlns="http://www.w3.org/2000/svg" width="304" height="500" fill="none" viewBox="0 0 304 500"><path fill="#fefeff" d="M233.642 332.291c1.315 23.048 2.653 45.624 3.918 68.203.763 13.615 1.413 27.237 2.111 40.855.349 6.81.858 13.617.967 20.43.051 3.208.974 4.274 4.325 4.234 15.491-.182 30.985-.109 46.478-.074 10.018.022 12.242 2.306 12.25 12.364.006 6.98.001 13.96.001 21.35H.082c0-9.013-.24-17.972.102-26.91.169-4.41 4.003-6.734 10.09-6.764 15.66-.076 31.324-.264 46.976.082 4.75.105 5.67-1.356 5.89-5.794 1.355-27.228 3.1-54.437 4.64-81.656.829-14.613 1.466-29.237 2.275-43.852.54-9.78 1.232-19.551 1.876-29.644h159.752c.65 8.895 1.301 17.8 1.959 27.176m-78.685 24.656c-1.331-.029-2.663-.105-3.993-.078-11.489.228-21.343 5.415-28.363 13.515-5.297 6.111-7.728 14.814-7.679 23.621.123 22.305.134 44.611-.049 66.914-.031 3.885.873 5.149 4.95 5.109 21.304-.205 42.612-.18 63.916-.019 3.809.029 5.15-.799 5.109-4.946-.22-22.136-.029-44.276-.154-66.414-.021-3.607-.465-7.339-1.47-10.793-4.573-15.723-15.653-24.038-32.267-26.909m3.026-352.052c15.881 14.198 31.773 28.383 47.639 42.597 7.932 7.107 15.816 14.267 24.564 22.163h-16.109v64.484c5.746 0 11.348-.105 16.944.029 5.68.136 9.156 2.664 9.66 6.705.647 5.189-2.231 8.832-7.814 9.508-3.079.373-6.209.321-9.689.476l2.42 44H78.021l2.396-43.926c-2.762-.128-5.337-.237-7.91-.368-6.325-.321-9.67-3.275-9.59-8.454.076-5.006 3.193-7.74 9.482-7.923 5.619-.163 11.246-.034 17.199-.034v-64.09H73.035c25.421-22.963 49.763-44.951 74.808-66.97 3.849.58 6.994 1.192 10.14 1.803m3.83 87.565V70.347h-19.929c0 20.436.034 40.373-.042 60.31-.01 2.568.804 3.613 3.428 3.526 4.15-.137 8.32-.224 12.46.022 3.393.201 4.19-1.17 4.148-4.348-.161-12.13-.065-24.264-.065-37.397m-45.485-22.61h-9.332v64.304c4.854 0 9.346-.277 13.785.081 4.107.331 5.043-1.246 5.006-5.105-.179-18.281-.073-36.566-.092-54.85-.001-1.286-.191-2.572-.338-4.43zm80.754 48.608V70.241h-19.074c0 20.632-.042 40.874.134 61.116.008.943 1.921 2.615 3.019 2.677 5.093.288 10.212.128 15.921.128zm-17.229 166.455H72.96l4.057-69.632H226.66l4.113 69.632z"/><path fill="#fefeff" d="M157.849 4.588c-3.012-.304-6.158-.916-9.686-1.596 3.613-4.224 3.613-4.224 9.686 1.596"/></svg>