<svg xmlns="http://www.w3.org/2000/svg" xml:space="preserve" style="fill-rule:evenodd;clip-rule:evenodd;stroke-linejoin:round;stroke-miterlimit:2" viewBox="0 0 605 597"><path d="M75.111 520.954c-.645-6.348.855-12.251 3.886-17.772 5.995-10.918 10.767-22.412 12.604-34.678 1.886-12.597.627-25.045-6.752-36.174-8.284-12.497-15.513-25.283-18.128-40.558-2.266-13.231-5.025-26.489-10.603-38.981-4.3-9.632-8.022-19.564-11.358-29.577-5.139-15.421-4.569-31.322-2.793-47.227.037-.33.018-.666.032-.999.333-8.086.87-16.17.93-24.257.041-5.416-1.231-10.889-.8-16.246.966-12.008 2.431-23.987 4.068-35.927 1.316-9.607 3.17-19.141 4.824-28.7.157-.903.597-1.756 1.023-2.968l4.775 3.987 5.681-23.321-1.892-.541-4.977 17.445c-2.7-2.071-4.035-5.022-2.427-10.697 1.316-4.643 4.33-8.821 6.732-13.126.416-.744 1.5-1.168 2.342-1.61 1.557-.818 4.068-1.161 4.576-2.374 1.378-3.288 1.967-6.918 2.695-10.449.066-.318-1.125-.895-1.861-1.448l-2.459 10.911-3.737-5.766-.88 7.396c-3.784-5.36-.835-16.122 5.811-16.85-6.947-6.867-4.001-15.125-3.114-22.728.723-6.203 1.023-11.815-2.235-17.382-4.43-7.566-6.968-15.605-6.163-24.622.551-6.174 4.703-11.77 10.698-12.565 1.151-.153 2.595.973 3.728 1.762 7.948 5.532 15.807 11.194 23.82 16.629 1.063.721 2.836.396 5.898.734-6.661-14.443-13.727-27.191-25.612-38.377L88.25 10.681c1.515 3.723 5.39 4.487 6.455 1.624 1.786-4.802 4.995-2.38 6.373-1.101 4.062 3.768 7.498 8.216 11.132 12.438 3.975 4.619 7.243 10.19 12.041 13.654 4.291 3.098 10.163 4.195 15.485 5.628 6.659 1.794 13.922 2.027 20.073 4.813 5.179 2.346 9.37 7.144 13.595 11.27 10.875 10.62 22.051 21.006 32.085 32.386 6.988 7.926 12.467 17.226 18.178 26.193 1.102 1.73.159 4.762.159 7.886-6.305-4.12-9.072-9.627-10.393-17.62-1.078 1.893-2.281 3.026-2.089 3.82 1.819 7.506 5.613 13.66 13.267 17.766l2.436-6.466c2.133 4.991 4.25 9.155 5.717 13.536 3.351 10.01 6.407 20.119 9.529 30.205.763 2.466.667 2.496-5.093 9.006v-19.116c-5.553 3.82-3.735 21.959 1.947 26.387l3.112-9.136 1.075.074c.687 3.997.869 8.17 2.184 11.949 1.772 5.091 4.688 9.777 6.569 14.839.895 2.41.533 5.287.741 7.952l-2.164.344c-.924-3.14-1.78-6.302-2.789-9.415-.975-3.003-2.108-5.956-3.171-8.93l-2.434.833c2.244 6.664 4.437 13.346 6.809 19.964.251.7 1.788 1.639 2.327 1.43 6.015-2.329 4.711 2.901 5.481 5.479.566 1.897.111 4.099.111 6.85l-4.06-6.02-1.312.52 3.346 10.542-30.359 7.05 2.106-7.867 1.093 1.117c1.394-.822 3.696-1.381 4.023-2.511 1.376-4.759 2.225-9.677 3.09-14.568.116-.657-.783-1.494-1.207-2.24l-2.561 13.91-2.319-.097-1.434-14.833-1.796-.051-1.294 19.195-1.243.12-2.059-10c-3.299 4.881-2.218 10.337 3.148 16.51h-9.968l-.509 1.5c1.049.5 2.071 1.36 3.149 1.436 3.725.261 5.49 2.12 6.253 5.763.735 3.51 2.191 6.868 3.33 10.293l1.92.113 3.47-9.206-1.27-.651-3.517 4.227c-.777-2.644-1.85-4.754-1.841-6.861.005-1.207 1.572-3.186 2.77-3.487 8.875-2.233 17.814-4.228 26.784-6.04 1.488-.301 3.908.099 4.742 1.119 5.765 7.048 8.177 15.515 9.542 24.355.294 1.908.771 3.788 1.228 5.991l-19.474 4.766.605 2.33 19.847-3.846c6.234 9.668 6.574 20.34.425 30.418-2.53 4.147-7.743 6.748-11.935 9.775-16.191 11.694-30.975 24.964-44.626 39.512-1.003 1.069-1.495 2.62-2.225 3.946l.897.866c1.167-1.005 2.366-1.974 3.495-3.02 9.809-9.082 19.36-18.462 29.488-27.17 6.973-5.996 14.687-11.143 22.213-16.465 1.093-.774 3.503-1.12 4.428-.452 4.256 3.075 8.383 6.395 12.133 10.059.94.919.79 3.571.334 5.202-4.021 14.407-11.566 26.733-21.521 37.915-7.87 8.84-14.84 18.495-21.958 27.977-1.21 1.612-1.151 4.177-2.004 7.615 1.957-1.371 3.151-1.745 3.367-2.429 2.793-8.836 9.225-15.136 15.069-21.832 9.183-10.522 18.817-20.751 24.588-33.699 2.332-5.234 3.926-10.819 5.555-16.333.984-3.328 3.325-4.251 8.095-2.099 3.651 1.647 7.083 3.781 10.951 5.883-2.121 24.614-19.11 42.509-30.111 63.157 8.188-3.845 27.349-39.69 33.423-61.222 5 .865 9.972 1.942 15.002 2.508 2.784.314 3.036 1.1 2.922 3.86-.554 13.452-6.497 24.765-13.312 35.822-5.994 9.724-11.963 19.465-17.85 29.255-.588.977-.535 2.341-.779 3.525l1.559.677c4.728-7.458 9.648-14.803 14.132-22.405 4.563-7.735 9.308-15.459 12.848-23.674 3.516-8.16 5.631-16.924 8.498-25.854 5.509.874 11.905 1.684 18.214 2.931 13.922 2.75 27.817 5.643 41.693 8.617 19.516 4.182 38.232 10.858 56.699 18.329 21.531 8.711 44.046 15.043 64.568 26.187 25.899 14.064 51.608 28.557 75.204 46.276 17.888 13.432 32.854 29.928 42.953 50.069 6.432 12.826 11.379 26.388 11.35 41.154-.012 5.829.181 11.666-.07 17.484-.168 3.884-3.908 7.029-6.895 6.347-4.874-1.112-5.891-3.295-5.292-8.229.4-3.298 1.789-7.286-1.591-9.605-1.722 7.171-2.797 14.634-5.368 21.541-2.773 7.452-8.829 10.74-17.154 10.944-9.261.227-17.362-3.32-25.901-5.725-8.031-2.262-16.261-3.922-24.49-5.343-4.992-.861-10.146-.964-15.234-1.06-17.353-.33-33.497 4.552-49.167 11.547-17.126 7.646-34.289 15.215-51.564 22.514-1.961.829-4.75-.301-7.155-.523.674-2.403.643-5.432 2.133-7.11 11.04-12.431 24.124-22.463 38.526-30.649 6.652-3.782 13.912-6.491 20.862-9.758.985-.463 1.777-1.337 2.207-2.554-14.082 2.777-26.191 9.359-37.298 17.609-11.117 8.258-23.167 14.362-36.387 18.195-3.179.921-6.611.971-10.238 1.464.11-5.466 3.753-6.343 6.436-7.741 16.221-8.45 32.545-16.703 48.807-25.076 1.666-.858 3.151-2.067 4.721-3.113l-.679-1.51c-4.329 1.667-8.812 3.023-12.955 5.067-8.082 3.988-15.719 8.969-24.003 12.43-12.395 5.18-25.162 9.481-37.852 13.922-1.393.487-3.325-.563-5.007-.9.591-1.504.846-3.288 1.828-4.465 5.727-6.862 14.438-8.171 22.099-11.283 10.975-4.458 22.225-8.233 33.305-12.437 1.082-.411 1.799-1.784 2.685-2.711l-.902-1.247c-8.349 3.086-16.661 6.278-25.057 9.23-10.572 3.717-21.022 8.064-31.887 10.567-7.893 1.819-16.372 1.196-24.596 1.385-1.335.031-2.703-1.379-4.291-2.253 2.505-4.101 5.674-5.149 9.923-5.818 13.378-2.108 26.659-4.879 39.918-7.679 6.59-1.392 13.055-3.385 19.562-5.157 1.433-.39 2.806-.995 4.207-1.501l-.378-1.591c-3.522.477-7.133.612-10.55 1.495-11.654 3.009-23.097 7.053-34.893 9.218-10.113 1.855-20.597 1.738-30.926 2.324-1.461.083-2.977-.795-4.774-1.317 3.032-5.865 8.601-4.798 13.046-5.484 11.105-1.713 22.279-3.314 33.483-3.989 20.521-1.236 40.146-6.86 60.089-11.029 12.053-2.519 24.31-3.427 36.707-3.261 9.482.127 18.974-1.305 28.476-1.705 13.061-.548 26.149-1.288 39.198-.93 6.653.182 13.247 2.573 19.865 3.981 1.372.292 2.73.653 4.481 1.076-2.125-4.424-15.468-8.453-26.87-8.214-9.832.206-19.654.89-29.635 1.37-2.513-6.784-.54-12.389 7.226-17.328 6.33-4.026 13.063-7.414 19.578-11.154 1.422-.816 2.678-1.924 3.631-3.467-12.893 2.795-23.319 9.648-32.126 19.23-2.773-9.359 2.875-23.465 16.571-43.912-1.359.801-3.048 1.317-4.025 2.448-8.956 10.369-14.636 22.298-16.329 35.957-.707 5.696-1.011 11.443-1.572 18.024-8.511.574-17.433 1.166-26.354 1.782-2.501.172-4.203-.351-4.14-3.436.203-9.792-.433-19.663.62-29.356.913-8.403 3.715-16.596 5.584-24.905.173-.768-.366-1.696-.895-3.862-5.035 10.679-7.162 20.532-8.158 30.528-1.013 10.159-1.079 20.412-1.579 31.026-.852 0-1.821-.127-2.746.021-4.628.74-5.949-1.102-5.924-5.78.06-11.582-.788-23.168-.808-34.754-.027-15.366 2.713-30.321 7.061-45.748-.972.9-2.575 1.657-2.816 2.721-2.236 9.893-5.106 19.753-6.089 29.789-1.24 12.662-1.019 25.479-1.15 38.232-.051 4.904.665 9.817 1.078 15.352-4.849.734-9.598 1.335-14.303 2.186-16.854 3.049-33.667 6.338-50.548 9.229-10.876 1.862-21.846 3.17-32.769 4.756-29.146 4.232-58.485 2.761-87.766 2.987-8 .061-16.003.121-24.001-.015-14.588-.248-29.231.047-43.742-1.172-14.287-1.201-28.358-4.012-38.208-16.386-2.517-3.162-3.685-5.966-1.789-9.699 5.215-10.274 9.609-21.085 15.919-30.632 3.032-4.586 9.31-7.651 14.748-9.846 5.259-2.123 11.333-2.208 17.035-3.266 1.514-.281 2.976-.849 4.462-1.286l-.357-1.806-12.747 1.067.273-4.655-14.673 9.981v-9.244l-1.421-.1c-.255 6.265-2.175 11.484-8.651 14.094l-5.271-7.448-1.954.399c3.482 6.613 8.006 13.31-.257 18.99-3.706-1.154-4.782-6.759-9.223-6.689l-1.227 1.557c2.142 1.932 4.159 4.032 6.461 5.751 2.501 1.87 2.047 3.88.672 5.933-5.991 8.938-8.242 19.179-9.591 29.522-.482 3.692 1.508 7.705 2.525 12.271-6.624-2.141-13.202-3.964-19.552-6.383-13.338-5.08-26.618-10.409-36.32-21.602-5.455-6.292-8.65-13.373-7.003-22.016.189-.991-.616-2.172-1.234-4.135-4.807 8.384-2.232 15.542 1.264 21.991 6.133 11.312 16.338 18.309 28.108 22.796 29.468 11.235 59.324 21.512 88.456 33.549 13.863 5.727 26.521 14.438 39.505 22.166 2.369 1.411 6.083 3.742 2.992 7.978l-4.976-2.523-.753 1.026c.575.76 1.216 1.48 1.713 2.289 1.729 2.816 1.909 5.532-.802 7.889-2.57 2.235-4.922 2.149-7.045-.712-1.677-2.261-3.466-4.439-5.537-7.075-1.687 5.479 1.739 8.27 4.651 11.11 2.298 2.24 2.608 4.646.752 6.938-1.128 1.393-3.188 3.007-4.706 2.891-2.606-.198-5.482-1.164-7.599-2.699-7.753-5.621-15.431-11.382-22.779-17.519-8.817-7.365-17.37-15.057-25.816-22.848-2.659-2.452-4.604-5.679-7.417-9.236l-.833 3.775c-20.138-1.999-40.039-3.975-60.794-5.952-2.252-.337-3.643-.7-5.047-1.007-12.257-2.678-24.629-4.924-36.73-8.182-6.895-1.856-12.076-6.047-13.475-14.24-1.615-9.462-.778-18.624 1.816-27.532 6.609-22.695 12.155-45.498 11.449-69.376-.027-.922.323-1.879.612-2.783 3.357-10.51 14.871-15.335 22.995-15.807 17.381-1.009 30.327 7.83 41.675 19.774.998 1.05 1.763 2.32 2.636 3.488l1.672-1.076c-1.682-2.732-2.869-5.998-5.135-8.102-8.211-7.622-17.196-14.264-28.465-16.607-9.324-1.94-18.336-1.276-26.932 3.691-6.27 3.623-9.617 9.296-12.43 15.247-2.852-6.727-5.669-13.333-8.436-19.96-.243-.582.006-1.374-.246-1.948-3.338-7.594.966-14.215 2.976-20.953 5.539-18.567 20.757-26.526 37.352-32.565 4.043-1.471 8.425-2.013 12.652-2.982l-.394-2.211c-4.724.788-9.736.824-14.124 2.495-19.43 7.396-36.342 17.633-40.658 40.735-11.898-19.547-12.329-42.06 17.32-58.214-2.409 0-3.701-.368-4.636.054-20.567 9.278-28.746 29.908-20.488 51.005 1.454 3.717 3.274 7.424 3.907 11.301 1.458 8.932 4.054 17.362 7.378 25.816 3.477 8.842 8.733 17.584 6.733 27.865-2.371 12.189-4.664 24.395-7.186 36.554-2.124 10.24-5.187 20.331-6.598 30.657-1.115 8.167 1.363 16.173 5.334 23.792-3.315-2.279-6.619-4.63-8.695-7.787-2.19-3.331-3.209-7.433-4.739-11.199m33.149-431.61c-.114-.138-.227-.277-.264-1.252l1.105-8.934-1.472-.224-3.309 9.74-8.622-14.175c-.917 1.305-1.526 1.932-1.43 2.071 4.1 5.934 5.879 13.223 10.836 18.617.496.54 2.461.682 2.806.254 1.987-2.471 3.692-5.169 5.492-7.79l-1.191-.9c-1.217 1.013-2.435 2.026-3.951 2.593M58.407 223.94l14.309 11.437 5.353-8.019 12.451.79c-.778-1.512-1.083-2.252-1.511-2.914-4.211-6.52-5.222-13.091-2.229-20.67 1.545-3.914 1.008-8.692 1.197-13.089.174-4.035.061-8.081.074-12.123 2.864 2.4 4.138 4.822 5.774 6.969 1.317 1.729 3.121 4.393 4.615 4.332 1.647-.066 3.187-2.77 4.9-4.45 10.826 4.464 22.376 4.793 34.189 3.05.946-.139 3.408 2.427 3.2 3.217-1.802 6.841 1.039 12.595 3.753 18.404.276.593 1.242.864 3.074 2.057-.83-2.666-1.375-4.081-1.708-5.544-.993-4.374-2.383-8.74-2.63-13.164-.111-2.003 1.811-5.627 3.336-5.938 5.08-1.036 10.434-1.454 15.621-1.124 20.401 1.298 40.742 2.208 60.882-2.587.82-.195 2.356.578 2.842 1.35 3.284 5.223 6.37 10.57 9.556 15.855.106.175.605.113.922.152 2.68-5.208 2.476-6.231-1.68-8.758-.415-.253-.784-.645-1.061-1.049-2.374-3.455-4.721-6.928-7.592-11.155-.637.114-2.53.528-4.445.781-8.379 1.109-16.738 2.656-25.155 3.101-7.213.382-14.496-.801-21.746-.779-8.752.026-17.505.531-26.251.956-4.254.206-8.544.408-12.729 1.125-9.015 1.544-17.884 1.436-26.692-1.165-4.81-1.42-8.915-3.289-8.12-9.561.128-1.005-.88-2.155-1.364-3.238l-1.456.203 1.085 14.767c-6.504-4.336-7.137-10.745-7.804-17.138l-1.849-.196-5.095 14.402c-4.607-4.247-5.704-9.363-3.598-14.726.496-1.265.473-2.735.689-4.11-6.991 7.032-4.699 17.201 1.001 21.647 4.751 3.707 5.009 12.175.249 17.082l-4.498-13.284c-2.178 6.241 1.126 10.938 2.954 16.188 1.831 5.261 1.804 11.17 2.689 17.494-6.719-3.653-6.632-10.344-9.492-15.505-.192 3.473.2 6.746 1.092 9.876 1.398 4.903-.051 8.755-4.374 13.319l-3.855-18.243-.986.071v11.962c-6.216-2.697-8.792-7.213-9.663-13.006-3.002 2.118-2.867 3.059 1.776 10.948m50.606-69.79 2.133 4.298-5.099 1.509.111 1.651c2.307.131 4.632.129 6.917.43 2.334.308 4.628.914 6.968 1.395-3.159 9.024 1.748 19 9.443 17.845-1.677-1.391-3.036-2.359-4.206-3.518-3.794-3.76-3.925-8.228-2.576-13.087 1.3-4.688 5.068-3.366 8.211-3.708.645-.07 1.266-.362 2.269-.664-1.554 6.777-4.728 13.375 2.255 19.453l4.356-5.552 7.315 7.607 2.296-9.472-1.027-.257-3.399 4.714c-.825-2.72-1.635-4.59-1.915-6.536-.289-2.013-.064-4.101-.064-6.156l-1.09-.219-5.873 11.249-1.902-.463c0-3.363-.789-7 .255-10 .801-2.302 3.773-5.176 6.02-5.402 6.957-.7 14.029-.256 21.055-.256 1.266 3.312 2.396 7.525 4.459 11.215 1.298 2.321 3.994 3.86 6.064 5.75 1.315-2.282 3.453-4.458 3.766-6.871.559-4.316 1.117-9.028-2.527-13.462l-1.023 17.422-2.485.269-6.02-16.977c-4.63-.404-10.072-1.61-15.38-1.173-8.375.69-16.639 2.633-24.99 3.745-3.929.522-8.208.689-10.443-3.643-2.15-4.169-3.753-8.387-2.432-13.448 1.412-5.41 1.923-11.056 2.828-16.598l-2-.367-2.617 11.067-3.492-5.265c-.856 1.698-1.093 1.975-1.123 2.273-.048.483-.161 1.178.099 1.442 4.283 4.331 3.976 9.779 3.893 15.221-.019 1.23.513 2.468.97 4.539m-24.015 97.303c1.167 4.42 2.122 4.781 5.228 1.774 2.06-1.995 3.95-4.165 5.67-5.995 4.91 2.617 7.259 6.858 9.804 11.556 3.572 6.596 9.65 11.278 17.969 11.14 1.101-.019 2.533-.782 3.142-1.663.354-.511-.522-2.002-1.026-2.955-2.612-4.941-5.305-9.84-7.909-14.786-.356-.676-.375-1.531-.55-2.303l-2.567 1.824 7.562 16.845c-9.55.88-20.68-14.53-16.012-23.655 2.494-4.877 2.615-10.142 1.621-15.42-.147-.781-1.194-1.393-1.825-2.084 1.119 8.206-1.04 14.93-5.506 22.475l-2.762-10.53-6.832 11.595-2.192-17.331-1.83.186 1.097 14.39-1.112.305-5.143-10.781-1.612.674c1.594 4.638 3.189 9.276 4.785 14.739m69.368-14.56 7.647 7.618 1.738-.451 4.386-39.973c3.483 3.231 5.721 5.309 8.761 8.131l-7.705-19.495-6.251 26.296c-.557-.589-1.374-1.242-1.925-2.072-3.597-5.419-4.016-11.084-1.488-17.112.861-2.053 1.068-4.38 1.575-6.581l-1.458-.199c-5.384 8.714-6.758 17.966-.225 26.345 3.527 4.523 3.685 8.9 3.509 13.77-.077 2.145-.871 4.265-1.689 7.988l-8.039-12.894c-.222.478-1.224 1.595-1.075 2.529.294 1.85 1.223 3.599 2.239 6.1M81.999 107.327l2.872 4.369c-.943 4.875-2.446 10.255 2.036 15.02.142-3.45-.746-6.87-.601-10.246.161-3.718 1.271-7.396 2.041-11.483l3.544 3.243 4.307-3.438c1.564 1.492 2.709 3.113 4.273 3.883.968.476 3.526-.027 3.728-.636.943-2.838 1.313-5.865 1.889-8.825l-1.749-.449-2.691 8.203-5.515-8.594-3.522 5.547-1.47-.238V89.08l-.777-1.132-2.54 4.317-4.166-12.586-1.937.6 3.666 15.176c-3.499 2.93-3.39 6.969-3.388 11.872m123.069 68.259 1.887-.951c-.813-1.204-1.648-2.394-2.436-3.614-3.216-4.977-3.405-10.973-.505-14.513 1.925-2.351 3.81-4.734 5.729-7.123l2.697 10.707c2.307-6.343 7.708-11.645 5.358-20.318l-4.039 12.357-5.378-15.195c-2.48 5.296.966 12.466-5.777 16.304l-3.456-15.214-1.375.103c-.11 1.262-.431 2.547-.298 3.783.783 7.264 2.038 14.5 2.391 21.781.221 4.553 1.395 8.264 5.202 11.893m-100.021 215.84c-6.319 5.784-10.994 12.461-11.162 21.611 1.535-1.059 2.239-2.602 3.131-4.028 2.934-4.69 5.193-10.108 9.064-13.847 8.89-8.59 20.134-11.242 32.347-10.212 1.78.15 3.617-.371 5.427-.581l.18-1.745c-2.576-.542-5.154-1.557-7.727-1.544-11.231.058-21.611 3.044-31.26 10.346m38.005-110.912c-5.96-10.163-5.96-10.163-9.385-9.873l11.737 18.691 5.215-11.402 11.474 12.738c3.556-6.3 1.645-11.47-1.145-16.485-.385-.692-1.685-.875-2.887-1.449l3.42 11.631-.759.197-13.7-14.729-.743 13.214-1.595.006c-.361-.658-.723-1.316-1.632-2.539M87.005 153.482l2.325-12.21-2.23-.461-3.296 15.889-1.737.288-5.822-14.16-5.165 15.161-2.213-.319 1.269-17.366c-1.201 1.638-2.924 2.915-3.006 4.291-.293 4.921-.487 9.937.175 14.796.481 3.537 3.059 3.475 4.972.741 1.544-2.204 2.605-4.746 3.715-6.83l7.797 9.088c1.397-3.51 2.304-5.791 3.216-8.908m34.02 78.787-5.921-12.472-1.899.801c1.514 3.881 2.31 8.29 4.695 11.531 4.769 6.482 9.673 12.759 13.869 19.719 3.091 5.128 6.849 11.122 15.538 11.619l-1.918-11.373-1.932.215.484 7.934c-8.064-6.638-15.41-12.909-13.827-25.663l-3.49 4.04c-1.879-2.048-3.555-3.876-5.599-6.351m74.295-20.385-4.637 2.552c-.608-6.254-1.082-11.794-1.736-17.313-.137-1.16-.936-2.242-1.43-3.361-3.526 14.685 2.697 25.455 11.502 34.929l5.686-26.526c-1.759 1.09-2.72 2.374-3.161 3.818-1.489 4.876-2.793 9.808-4.168 14.719l-.922.143c-.184-2.81-.369-5.62-1.134-8.961m-51.825-87.886c.458.856.88 1.732 1.381 2.562.9 1.491 1.846 2.955 2.773 4.43 1.112-1.269 2.24-2.523 3.322-3.816.278-.332.408-.786.656-1.285 4.437 2.645 8.774 7.498 13.954 3.533 3.206-2.454 1.69-11.034-1.708-13.587v12.007l-1.696.52-4.182-10.304-.989.005v9.232l-8.073-10.025-.972 9.306-4.858-7.76-1.071.381c.334 1.386.668 2.772 1.463 4.801M110.927 287.41l5.962 7.121c4.14-7.413 4.186-13.516.425-16.385l-.838 10.551-1.204-.067-6.191-10.849L105.377 290c-4.37-12.552-4.37-12.552-5.738-12.453l1.922 19.858c3.487-4.145 6.105-7.257 9.366-9.995M126.501 119l4.029 2.384c1.843-3.072 4.067-5.746 5.134-8.822 1.309-3.773 3.242-1.941 5.144-1.226 1.171.44 2.231 1.174 3.335 1.773 2.927-5.28 2.629-12.62-.965-15.409l.809 10.162-1.399.311-4.255-8.374-.61 7.11-1.618 1.218-2.899-5.799-1.874.635c4.064 5.836 2.019 10.506-2.48 15.828l-5.545-13.243c-3.049 5.663.873 9.049 3.194 13.452m47.526 34.451 3.661-6.953 4.235 2.594c6.018-5.165 5.595-18.54-.846-22.073.67 3.293 1.615 6.343 1.831 9.443.211 3.043-.32 6.137-.525 9.208l-1.448.223-7.07-10.097v13.95l-1.521.319-7.371-9.348c1.022 5.784 3.091 10.712 9.054 12.734m-65.006 355.788c3.385 5.205 7.461 9.591 14.191 12.08-4.841-6.824-10.617-12.476-13.221-19.333-2.655-6.993-2.192-15.17-3.067-22.596-4.622 4.454-3.461 19.07 2.097 29.849M572.677 497c-11.392.827-22.051 3.891-31.592 10.664 15.112-5.783 30.558-9.326 46.907-8.083-4.384-4.191-9.606-1.902-15.315-2.581M185.042 118.567l-1.828-1.23c-.391.679-1.21 1.432-1.108 2.027 1.031 6.011 14.29 14.215 20.892 12.985-1.344-5.247 4.219-11.654-2.754-15.967l1.971 9.71-6.794-5.079-1.49 1.138 5.375 7.269c-6.698-1.657-10.753-5.287-14.264-10.853m51.956 93.24 1 12.462 5.04-3.483 4.721 9.778c3.208-4.636 1.897-8.324 2.158-11.736.009-.112-.426-.258-.893-.526l-2.318 4.769c-.751-3.606-1.465-5.876-1.634-8.186-.156-2.134.272-4.31.442-6.468l-1.553-.197-2.924 10.07-3.385-12.488-1.649.406c.331 1.569.663 3.138.995 5.599m-110.996-65.546c.184-2.109-.414-4.869.699-6.204 3.386-4.063.748-8.355 1.189-12.47.095-.894-1.098-1.927-1.697-2.896l-1.274.223c.5 4.929 3.163 10.394-3.03 13.948l-3.192-9.692c-1.198 1.568-1.795 3.227-1.329 4.495 2.283 6.222 4.811 12.354 7.367 18.471.274.656 1.285 1.003 2.86 2.157-.676-3.093-1.121-5.127-1.593-8.032m11.999 76.87-1.572-14.931-2.125.157.707 11.17-1.29.457-9.974-18.874c-1.513 5.805 1.872 12.854 12.907 26.718.439-.46 1.079-.838 1.228-1.356.222-.772.097-1.643.119-3.341m76.798-3.406c1.647-9.826 6.765-19.569.457-29.539-.212 4.096.826 8.201.58 12.229-.257 4.216-1.747 8.357-2.698 12.531l-1.014-.027-2.862-11.013-1.586.32c.552 3.545.65 7.25 1.823 10.576.739 2.099 3.085 3.631 5.3 4.923M75.469 99.024l2.747-10.606-1.843-.521-2.965 9.34-4.564-4.344c.926 4.416 1.925 7.33 2.046 10.28.119 2.919-.648 5.875-1.009 8.676-1.817-.432-3.011-.757-4.226-.923-.093-.013-.631 1.49-.469 1.607 1.264.916 3.126 2.64 3.896 2.262 1.599-.784 3.249-2.518 3.782-4.207 1.101-3.494 1.485-7.215 2.605-11.564m24.53 120.939c.926.687 2.178 2.166 2.728 1.939 5.946-2.453 13.675-16.282 6.891-24.923.714 8.765.359 16.301-7.011 21.373l-2.196-11.449-1.602.272c.396 3.985.793 7.969 1.19 12.788m146 31.763-3.235-9.07c-.254 7.711.39 14.914 1.398 22.065.113.807 2.584 2.135 3.427 1.814 1.974-.75 3.806-10.273 2.516-12.754l-2.747 7.228c-.5-3.1-.928-5.761-1.359-9.283M193 258.545v-5.526l-1.995-.211-1.719 11.423c-2.48-3.112-4.557-5.169-5.945-7.617-1.367-2.409-2.036-5.215-3.011-7.847-1.978 7.885 1.721 13.764 11.369 18.599.476-2.904.888-5.424 1.301-8.821M155.685 67.846c1.074-10.866-6.393-18.016-17.36-14.341 12.1 2.091 17.738 7.697 13.137 19.677l1.61-.209c.674-1.518 1.348-3.036 2.613-5.127m-18.18-2.839c.374.705.633 1.51 1.143 2.097 2.188 2.517 4.479 2.725 7.241.609 3.124-2.394 2.167-4.728.249-7.043-3.022-3.647-6.494-2.198-8.633 4.337M55.027 247.174c2.596 4.354 3.232 10.279 9.73 12.232l2.899-13.836-1.635-.461-3.776 10.945-6.035-13.761c-.349.386-.88.708-.964 1.121-.196.961-.177 1.966-.219 3.76m74.781-177.897c3.128 6.973 7.28 9.497 14.969 7.468-11.617-2.304-13.986-9.611-13.193-19.01-4.157 3.316-2.102 7.368-1.776 11.542m79.234 195.03c1.31-.35 3.555-.404 3.775-1.099 1.229-3.887 2.286-7.893 2.737-11.932.215-1.917-1.045-4-1.637-6.007l-.721.224-1.238 14.55-1.096-.103-2.62-5.193-1.581.621c.78 2.707 1.559 5.413 2.381 8.939m49.467-15.292-2.483.03 3.066 11.476c6.242-4.697 7.255-10.911 3.193-16.235l-.811 9.453-1.299-.042c-.404-1.344-.809-2.688-1.666-4.682m-162.51 13.086c2.07 5.924 5.179 11.204 9.782 15.611-1.058-4.016-3.173-7.472-4.763-11.155-1.488-3.445-2.421-7.13-3.598-10.71l-1.422.467zM84 267.484c.619 7.506 4.652 13.823 9.636 15.173L84.44 263.67a44 44 0 0 0-.44 3.814m141.001-92.994 1.697-6.323-.721-.531-3.946 4.148-3.191-11.203c-2.683 4.469.454 14.117 4.463 15.354.445.138 1.1-.409 1.698-1.445M170 225.595c.82 6.003 4.118 10.468 9.408 15.067 0-1.895.352-3.034-.056-3.722-2.831-4.766-5.819-9.438-8.632-13.939-.033.083-.376.933-.72 2.594M67.996 184.499l1.901 5.568 1.765-.397c-.553-3.221-1.713-6.484-1.493-9.652.231-3.314 1.787-6.537 2.902-10.263-4.063 2.586-6.286 9.213-5.075 14.744m84.145-34.828-8.142-12.965c0 1.445-.597 3.532.118 4.964 1.764 3.531 4.026 6.838 6.372 10.026.33.45 2.25-.269 3.434-.447-.362-.422-.723-.844-1.782-1.578m-91.58 24.379 1.596 5.339 2.006-.073 6.378-12.71-2.044-1.069c-1.277 2.415-2.538 4.838-3.839 7.24-.73 1.349-1.243 3.413-4.097 1.273m37.392-29.474-1.797-7.296c-2.669 8.208.094 17.264 4.772 17.215-.979-3.029-1.955-6.05-2.975-9.919m-5.955 73.64 1.316 5.954 1.516-.213v-17.543l-1.619-.19c-.405 3.696-.809 7.391-1.213 11.992m-8.735-84.247c.001-.981.372-2.188-.064-2.903-1.587-2.604-3.538-4.985-5.149-7.577-.617-.991-.687-2.322-1.127-3.944-3.226 4.895-.781 10.543 6.34 14.424m78.186 39.995-4.088-11.236c-.519 3.012-1.625 5.227-.999 6.708 1.161 2.746 3.335 5.063 5.087 7.558.187-.825.374-1.65 0-3.03m-63.476-59.037c-.65-.009-1.692-.284-1.892.012-2.709 3.999.59 10.616 4.996 11.497-.968-3.353-2.023-7.006-3.104-11.509m125.051 29.332c3.468 6.029 5.567 7.217 7.527 4.936l-7.663-9.423-1.001.517a40 40 0 0 1 1.137 3.97m-116.036-33.108c-.119-.252-.212-.523-.375-.742-.039-.054-.368.003-.458.104-2.652 2.974-1.775 8.534 2.194 11.354-.482-3.536-.915-6.719-1.361-10.716m85.39 57.752-2.955-7.234-2.29 1.124 5.146 9.721 1.692-.861c-.341-.744-.682-1.488-1.593-2.75" style="fill:#fff;fill-rule:nonzero" transform="translate(-40.7 -9.449)"/></svg>